<svg width="48" height="48" viewBox="0 0 48 48" fill="none" xmlns="http://www.w3.org/2000/svg">
<path d="M39.8146 32.023L39.808 32.6921L42.2778 34.1179L44.7335 32.691L44.74 32.0219L42.2702 30.5961L39.8146 32.023ZM26.9811 19.9401L26.9873 19.271L24.5178 17.8452L22.0622 19.2721L22.0557 19.9412L24.5255 21.367L26.9811 19.9401Z" fill="#416E84"/>
<path d="M17.3032 46.2543C17.2712 46.2541 17.2399 46.2456 17.2122 46.2296L2.9228 37.9798C2.89523 37.9638 2.87233 37.9409 2.8564 37.9133C2.84047 37.8857 2.83207 37.8545 2.83203 37.8226C2.83199 37.7907 2.84033 37.7594 2.85619 37.7318C2.87206 37.7042 2.8949 37.6812 2.92244 37.6652L7.07771 35.2507C7.11907 35.2306 7.1665 35.2269 7.21048 35.2403C7.25446 35.2537 7.29174 35.2833 7.31484 35.323C7.33794 35.3628 7.34515 35.4098 7.33503 35.4547C7.3249 35.4995 7.29819 35.5389 7.26025 35.5649L3.37662 37.8216L17.3028 45.8616L21.3672 43.4998C21.3878 43.4867 21.4109 43.4779 21.4351 43.4739C21.4592 43.4699 21.4839 43.4709 21.5077 43.4767C21.5315 43.4825 21.5538 43.4931 21.5734 43.5077C21.593 43.5224 21.6094 43.5408 21.6217 43.562C21.634 43.5831 21.6419 43.6066 21.6449 43.6308C21.648 43.6551 21.6461 43.6798 21.6393 43.7033C21.6326 43.7268 21.6212 43.7487 21.6058 43.7678C21.5904 43.7868 21.5713 43.8025 21.5497 43.8139L17.3944 46.2292C17.3667 46.2453 17.3352 46.2537 17.3032 46.2536V46.2543ZM36.3395 33.9743C36.2996 33.9742 36.2609 33.9609 36.2292 33.9366C36.1976 33.9122 36.1749 33.8781 36.1645 33.8396C36.1542 33.8011 36.1568 33.7602 36.172 33.7233C36.1872 33.6864 36.2141 33.6555 36.2486 33.6354L38.4642 32.3474L32.5235 28.9176C32.4959 28.9017 32.4729 28.8787 32.4569 28.8511C32.4409 28.8235 32.4325 28.7921 32.4324 28.7602C32.4324 28.7283 32.4408 28.697 32.4567 28.6693C32.4726 28.6416 32.4955 28.6187 32.5232 28.6027L35.3806 26.9419C35.4013 26.9288 35.4244 26.92 35.4485 26.9161C35.4727 26.9121 35.4974 26.9131 35.5211 26.9189C35.5449 26.9247 35.5673 26.9352 35.5869 26.9499C35.6064 26.9645 35.6229 26.983 35.6352 27.0042C35.6475 27.0253 35.6554 27.0487 35.6584 27.073C35.6614 27.0973 35.6595 27.1219 35.6528 27.1455C35.6461 27.169 35.6347 27.1909 35.6193 27.2099C35.6039 27.229 35.5848 27.2447 35.5632 27.2561L32.977 28.7594L38.9181 32.1896C38.9456 32.2055 38.9685 32.2284 38.9845 32.256C39.0004 32.2836 39.0088 32.3149 39.0088 32.3468C39.0089 32.3786 39.0005 32.4099 38.9847 32.4375C38.9688 32.4651 38.946 32.4881 38.9184 32.5041L36.4312 33.9496C36.4034 33.9658 36.3717 33.9744 36.3395 33.9743ZM29.7293 27.0594C29.6974 27.0593 29.6661 27.0509 29.6384 27.035L24.993 24.3529L22.5966 25.7456C22.555 25.7686 22.5061 25.7744 22.4603 25.7617C22.4145 25.7491 22.3754 25.719 22.3515 25.6779C22.3276 25.6369 22.3207 25.5881 22.3324 25.542C22.344 25.4959 22.3732 25.4562 22.4137 25.4314L24.9013 23.9856C24.929 23.9695 24.9604 23.961 24.9924 23.9609C25.0244 23.9609 25.0558 23.9692 25.0835 23.9852L29.729 26.6678L32.4962 25.0598C32.5169 25.0467 32.54 25.0379 32.5642 25.0339C32.5883 25.0299 32.613 25.0309 32.6368 25.0367C32.6605 25.0425 32.6829 25.0531 32.7025 25.0677C32.7221 25.0824 32.7385 25.1008 32.7508 25.122C32.7631 25.1431 32.771 25.1666 32.774 25.1908C32.7771 25.2151 32.7751 25.2398 32.7684 25.2633C32.7617 25.2868 32.7503 25.3087 32.7349 25.3278C32.7195 25.3468 32.7004 25.3625 32.6788 25.3739L29.8206 27.0347C29.793 27.0509 29.7613 27.0594 29.7293 27.0594Z" fill="#41677D"/>
<path d="M27.6494 23.5071C27.6494 23.5922 27.7061 23.6722 27.8098 23.7337L36.9858 29.0428C37.193 29.1653 37.5374 29.1653 37.7494 29.0428L41.7094 26.7424C41.8178 26.6813 41.8694 26.601 41.8694 26.5206L41.8741 25.7526C41.8741 25.8326 41.313 25.6024 41.2094 25.6635L37.8792 27.6751C37.6672 27.7977 37.3276 27.7977 37.1156 27.6751L27.8145 22.965C27.7061 22.9039 27.6545 22.8235 27.6545 22.7388L27.6494 23.5071Z" fill="#416E84"/>
<path d="M41.7141 25.5289C41.9251 25.6508 41.9261 25.8489 41.7138 25.9722L37.7516 28.2744C37.5396 28.398 37.1974 28.398 36.9869 28.2762L27.8131 22.9649C27.6025 22.8435 27.5985 22.6435 27.8105 22.5202L31.7731 20.218C31.9851 20.0944 32.3301 20.0962 32.5411 20.218L41.7141 25.5289Z" fill="#4C7891"/>
<path d="M36.9687 26.1356C36.6171 26.1356 36.2651 26.0581 35.9967 25.9028C35.7189 25.7428 35.5658 25.5236 35.5654 25.2865C35.5654 25.0505 35.716 24.833 35.9902 24.6737C36.5334 24.3581 37.3858 24.3581 37.932 24.6737C38.2112 24.8345 38.3654 25.0534 38.3658 25.2901C38.3658 25.525 38.2142 25.7425 37.9385 25.9028C37.6712 26.0581 37.3203 26.1356 36.9687 26.1356ZM36.96 24.6203C36.6414 24.6203 36.3236 24.6905 36.0818 24.8312C35.8658 24.9563 35.7472 25.1177 35.7472 25.2861C35.7476 25.4559 35.8683 25.6192 36.0876 25.7457C36.5749 26.0265 37.364 26.0268 37.8469 25.7457C38.0643 25.6196 38.184 25.4577 38.184 25.2905C38.1836 25.1217 38.0618 24.9581 37.8411 24.8308C37.5978 24.6905 37.2785 24.6203 36.96 24.6203Z" fill="#CAD0DD"/>
<path d="M36.5549 25.5284C36.7829 25.6593 37.1501 25.6593 37.3781 25.5284C37.6061 25.3935 37.6021 25.1822 37.3741 25.0513C37.1461 24.9164 36.7829 24.9164 36.5505 25.0513C36.3269 25.1822 36.3269 25.3931 36.5549 25.5284ZM33.0869 24.0018C32.7352 24.0018 32.3829 23.9244 32.1145 23.7691C31.8367 23.6091 31.684 23.3902 31.6836 23.1531C31.6832 22.9175 31.8341 22.6997 32.1083 22.54C32.6512 22.2251 33.504 22.2248 34.0501 22.54C34.3294 22.7011 34.4829 22.9204 34.4836 23.1571C34.4836 23.3917 34.3323 23.6091 34.0567 23.7695C33.7894 23.9244 33.4385 24.0018 33.0869 24.0018ZM33.0778 22.4866C32.7596 22.4866 32.4414 22.5571 32.2 22.6975C31.984 22.8229 31.8654 22.9848 31.8654 23.1528C31.8654 23.3226 31.9865 23.4855 32.2054 23.612C32.6923 23.8928 33.4818 23.8931 33.965 23.612C34.1825 23.4858 34.3021 23.3248 34.3018 23.1575C34.3018 22.988 34.18 22.8251 33.9592 22.6975C33.716 22.5571 33.3967 22.4866 33.0778 22.4866Z" fill="#CAD0DD"/>
<path d="M33.4935 22.9159C33.7215 23.0472 33.7255 23.2599 33.4964 23.393C33.2702 23.5243 32.9004 23.5243 32.6728 23.393C32.4448 23.2614 32.4437 23.0476 32.6698 22.9159C32.8989 22.7828 33.2658 22.7843 33.4935 22.9159ZM36.8749 21.2988H37.0568V25.3679H36.8749V21.2988Z" fill="#CAD0DD"/>
<path d="M32.9922 18.2839H33.174V23.153H32.9922V18.2839Z" fill="#CAD0DD"/>
<path d="M18.0043 10.6606C17.8923 10.5945 17.7349 10.6025 17.5621 10.7039L2.06722 19.6494C1.72394 19.8476 1.44976 20.325 1.44976 20.7188L1.48249 32.065L0.766126 31.6483L0.733398 20.3021C0.733398 19.9083 1.00758 19.4308 1.35049 19.2326L16.8458 10.2872C17.0185 10.1883 17.176 10.1781 17.2876 10.2439L18.0043 10.6606Z" fill="#BAC1CE"/>
<path d="M17.5633 10.7026C17.9055 10.5052 18.184 10.6637 18.1851 11.0568L18.2171 22.4022L1.4822 32.0641L1.4502 20.7186C1.44875 20.3255 1.72547 19.8466 2.06766 19.6492L17.5633 10.7026Z" fill="#525566"/>
<path d="M17.6745 21.9891L2.01992 31.0229L1.98828 20.6985C1.98828 20.5829 2.12501 20.3418 2.24028 20.2785L17.6432 11.3916L17.6745 21.9891Z" fill="white"/>
<path d="M17.6457 12.3331L1.99046 21.3669L1.98828 20.6981C1.98828 20.5829 2.12501 20.3418 2.24028 20.2785L17.6432 11.3916L17.6457 12.3331Z" fill="#F9607F"/>
<path d="M1.48242 32.0645L1.48751 33.219L11.2966 38.3815C11.637 38.5797 12.1882 38.5797 12.5312 38.3815L28.0264 29.4361C28.1992 29.3368 28.2853 29.2048 28.2853 29.0754L28.2802 28.4619C28.2802 28.5917 28.1941 28.7212 28.021 28.8201L12.5286 37.7655C12.1857 37.9612 11.6319 37.9612 11.2941 37.7655L1.48242 32.0645Z" fill="#525566"/>
<path d="M1.48438 32.0645L11.2938 37.7649C11.6338 37.9627 12.1866 37.9627 12.5291 37.7649L28.0229 28.8194C28.3669 28.6209 28.3684 28.3005 28.0287 28.1031L18.2193 22.4023L1.48438 32.0645Z" fill="#E4E8F4"/>
<path d="M21.3413 31.8478L18.1355 33.7169C18.0499 33.7663 17.9529 33.7923 17.8541 33.7923C17.7552 33.7923 17.6582 33.7663 17.5726 33.7169L15.5228 32.5314C15.4794 32.5078 15.4431 32.473 15.4178 32.4305C15.3926 32.388 15.3792 32.3396 15.3792 32.2901C15.3792 32.2407 15.3926 32.1922 15.4178 32.1498C15.4431 32.1073 15.4794 32.0724 15.5228 32.0489L18.7282 30.1798C18.8138 30.1303 18.9109 30.1043 19.0097 30.1043C19.1085 30.1043 19.2056 30.1303 19.2911 30.1798L21.3413 31.3652C21.5221 31.466 21.5221 31.7372 21.3413 31.8478ZM3.80133 31.4951C3.7686 31.5143 3.7686 31.5445 3.80133 31.5634L4.17769 31.7823C4.21042 31.8012 4.26496 31.8027 4.29769 31.7834L4.87769 31.4489C4.91114 31.4296 4.90896 31.398 4.87587 31.3791L4.49951 31.1601C4.4813 31.1507 4.4611 31.1458 4.4406 31.1458C4.4201 31.1458 4.3999 31.1507 4.38169 31.1601L3.80133 31.4951ZM2.73878 32.1089C2.70787 32.1267 2.70787 32.1569 2.7406 32.1758L3.11696 32.3947C3.14969 32.4136 3.20423 32.4151 3.23478 32.3972L3.94751 31.986C3.9806 31.9667 3.97842 31.9351 3.94569 31.9161L3.56933 31.6976C3.55107 31.6881 3.5308 31.6832 3.51023 31.6832C3.48967 31.6832 3.4694 31.6881 3.45114 31.6976L2.73878 32.1089ZM10.3904 33.0972C10.3595 33.1151 10.3595 33.1449 10.3948 33.1656L11.1824 33.6234C11.2155 33.6423 11.2675 33.6423 11.2981 33.6249L11.9373 33.2558C11.9682 33.2376 11.9682 33.2078 11.9355 33.1889L11.1475 32.7307C11.1295 32.7209 11.1094 32.7156 11.0889 32.7151C11.0684 32.7147 11.0481 32.7192 11.0297 32.7281L10.3904 33.0972ZM8.30678 29.7307C8.27587 29.7485 8.27587 29.7783 8.3086 29.7976L8.94605 30.1681C8.98133 30.1885 9.03333 30.1885 9.06424 30.1707L9.70314 29.8016C9.7366 29.7827 9.7366 29.7525 9.70133 29.7321L9.06387 29.3612C9.04566 29.3518 9.02546 29.3469 9.00496 29.3469C8.98446 29.3469 8.96426 29.3518 8.94605 29.3612L8.30678 29.7307ZM15.0551 28.0958C15.0246 28.114 15.0221 28.1452 15.0573 28.1656L15.6948 28.5361C15.7133 28.5457 15.7338 28.5509 15.7546 28.5511C15.7754 28.5514 15.7961 28.5467 15.8148 28.5376L16.4541 28.1685C16.485 28.1503 16.485 28.1205 16.4497 28.1001L15.8126 27.7296C15.7945 27.7198 15.7744 27.7144 15.7538 27.714C15.7333 27.7135 15.7129 27.718 15.6944 27.7271L15.0551 28.0958ZM18.4181 28.4623C18.3875 28.4801 18.3871 28.51 18.4224 28.5307L19.2104 28.9885C19.2431 29.0078 19.2951 29.0078 19.3261 28.99L19.9653 28.6209C19.9981 28.6016 19.9984 28.5718 19.9653 28.5525L19.1777 28.0943C19.1593 28.0844 19.1387 28.0792 19.1178 28.079C19.0969 28.0788 19.0763 28.0837 19.0577 28.0932L18.4181 28.4623ZM16.5377 28.3954C16.505 28.4143 16.5046 28.4445 16.5377 28.4638L17.1748 28.834C17.2101 28.8547 17.2621 28.8547 17.2948 28.8354L17.9344 28.4663C17.965 28.4485 17.9653 28.4183 17.9301 28.398L17.2926 28.0274C17.2748 28.0182 17.255 28.0133 17.2349 28.0131C17.2148 28.0129 17.195 28.0174 17.177 28.0263L16.5377 28.3954ZM21.4621 25.5525C21.429 25.5714 21.4286 25.6016 21.4617 25.6205L22.0988 25.991C22.1344 26.0114 22.1861 26.0114 22.2191 25.9925L22.8584 25.6234C22.8893 25.6052 22.8893 25.5754 22.8541 25.5551L22.217 25.1845C22.1991 25.1753 22.1794 25.1703 22.1593 25.1702C22.1392 25.17 22.1193 25.1745 22.1013 25.1834L21.4621 25.5525ZM18.5479 27.2347C18.517 27.2529 18.5166 27.2827 18.5497 27.302L19.1871 27.6721C19.2224 27.6929 19.2744 27.6929 19.305 27.6751L21.8642 26.1976C21.8951 26.1794 21.8951 26.1496 21.8599 26.1292L21.2224 25.7587C21.2046 25.7494 21.1849 25.7444 21.1648 25.7442C21.1447 25.7439 21.1248 25.7484 21.1068 25.7572L18.5479 27.2347ZM16.0661 27.5125C16.0355 27.53 16.0351 27.5601 16.0704 27.5805L16.7079 27.951C16.7431 27.9714 16.7951 27.9714 16.8257 27.9536L17.465 27.5845C17.4959 27.5671 17.4959 27.5369 17.4606 27.5165L16.8231 27.146C16.8051 27.1362 16.785 27.1309 16.7645 27.1304C16.7441 27.13 16.7237 27.1344 16.7053 27.1434L16.0661 27.5125ZM17.5511 27.8103C17.5202 27.8281 17.5202 27.858 17.553 27.8772L18.1904 28.2478C18.2257 28.2681 18.2777 28.2681 18.3082 28.2503L18.9501 27.8801C18.9806 27.862 18.981 27.8321 18.9457 27.8118L18.3082 27.4412C18.2904 27.4319 18.2707 27.427 18.2506 27.4267C18.2305 27.4264 18.2106 27.4309 18.1926 27.4398L17.5511 27.8103ZM13.1006 26.1263C13.0679 26.1456 13.0675 26.1754 13.1006 26.1947L13.4766 26.4132C13.5093 26.4325 13.5639 26.434 13.597 26.4147L14.177 26.0801C14.2101 26.0609 14.2079 26.0292 14.1751 26.01L13.7988 25.7918C13.7805 25.7823 13.7603 25.7774 13.7397 25.7774C13.7191 25.7774 13.6989 25.7823 13.6806 25.7918L13.1006 26.1263ZM12.1704 26.6634C12.1373 26.6827 12.137 26.7125 12.1701 26.7318L12.5464 26.9503C12.5791 26.9696 12.6337 26.971 12.6664 26.9518L13.2468 26.6172C13.2795 26.598 13.2777 26.5663 13.2446 26.5474L12.8682 26.3285C12.85 26.3191 12.8298 26.3142 12.8093 26.3142C12.7888 26.3142 12.7686 26.3191 12.7504 26.3285L12.1704 26.6634ZM13.309 26.8427C13.2784 26.8605 13.2781 26.8903 13.3111 26.9096L13.9482 27.2798C13.9835 27.3005 14.0355 27.3005 14.0664 27.2827L14.7057 26.9136C14.7362 26.8958 14.7388 26.8645 14.7035 26.8438L14.0661 26.4736C14.0477 26.4645 14.0276 26.4598 14.0071 26.4598C13.9867 26.4598 13.9665 26.4645 13.9482 26.4736L13.309 26.8427ZM11.2399 27.2005C11.2093 27.2187 11.209 27.2485 11.2421 27.2678L11.6184 27.4863C11.6511 27.5056 11.7057 27.5067 11.7362 27.4892L12.3188 27.1529C12.3493 27.135 12.3471 27.1038 12.3144 27.0845L11.9381 26.866C11.9202 26.8567 11.9005 26.8517 11.8804 26.8514C11.8603 26.8512 11.8405 26.8557 11.8224 26.8645L11.2399 27.2005ZM14.7941 27.0943C14.7635 27.1118 14.7631 27.1416 14.7984 27.1623L15.4359 27.5329C15.4686 27.5518 15.5206 27.5518 15.5515 27.5343L16.1908 27.1652C16.2217 27.1471 16.2242 27.1158 16.1911 27.0969L15.5537 26.7263C15.5352 26.7167 15.5147 26.7116 15.4939 26.7113C15.473 26.7111 15.4524 26.7157 15.4337 26.7249L14.7941 27.0943ZM12.3101 27.4194C12.277 27.4383 12.2766 27.4685 12.3097 27.4878L12.9471 27.858C12.9824 27.8787 13.0344 27.8787 13.0671 27.8594L13.7068 27.4907C13.7377 27.4729 13.7377 27.4431 13.7024 27.4223L13.0653 27.0521C13.0475 27.0428 13.0278 27.0379 13.0077 27.0376C12.9876 27.0374 12.9677 27.0418 12.9497 27.0507L12.3101 27.4194ZM10.3097 27.738C10.2788 27.7554 10.2788 27.7856 10.3115 27.8049L10.6879 28.0234C10.7206 28.0427 10.7751 28.0441 10.8057 28.0263L11.3882 27.69C11.4191 27.6721 11.417 27.6409 11.3839 27.6216L11.0075 27.4031C10.9897 27.3938 10.97 27.3888 10.9499 27.3885C10.9298 27.3883 10.9099 27.3927 10.8919 27.4016L10.3097 27.738ZM13.7882 27.6751C13.7573 27.6929 13.7573 27.7227 13.7926 27.7434L14.4297 28.1136C14.4624 28.1329 14.5148 28.1329 14.5453 28.1151L15.1846 27.746C15.2155 27.7281 15.2181 27.6969 15.185 27.6776L14.5475 27.3074C14.529 27.2978 14.5085 27.2927 14.4877 27.2924C14.4668 27.2922 14.4462 27.2968 14.4275 27.306L13.7882 27.6751ZM11.3086 27.9976C11.2777 28.0154 11.2777 28.0452 11.3104 28.0645L11.9479 28.4351C11.9831 28.4554 12.0351 28.4554 12.0661 28.4376L12.705 28.0685C12.7359 28.0507 12.7362 28.0209 12.701 28.0001L12.0635 27.63C12.0457 27.6206 12.026 27.6156 12.0059 27.6154C11.9858 27.6151 11.9659 27.6196 11.9479 27.6285L11.3086 27.9976ZM9.37914 28.2751C9.34824 28.2929 9.34823 28.3227 9.38096 28.342L9.75733 28.5605C9.79042 28.5798 9.8446 28.5812 9.87551 28.5634L10.4577 28.2271C10.4886 28.2092 10.4864 28.178 10.4537 28.1587L10.0773 27.9401C10.0595 27.9308 10.0398 27.9258 10.0197 27.9256C9.99959 27.9253 9.97972 27.9298 9.96169 27.9387L9.37914 28.2751ZM12.7821 28.2558C12.7511 28.274 12.7511 28.3038 12.7864 28.3241L13.4235 28.6947C13.4566 28.7136 13.5086 28.7136 13.5391 28.6961L14.1784 28.3271C14.2093 28.3089 14.2119 28.2776 14.1788 28.2587L13.5413 27.8881C13.5228 27.8785 13.5023 27.8734 13.4815 27.8732C13.4607 27.8729 13.4401 27.8775 13.4213 27.8867L12.7821 28.2558ZM8.45114 28.8107C8.41805 28.83 8.41769 28.8598 8.45078 28.8791L8.82714 29.0976C8.85987 29.1169 8.91442 29.1183 8.94714 29.0991L9.52751 28.7645C9.55805 28.7463 9.55842 28.7136 9.52533 28.6947L9.14896 28.4758C9.13065 28.4667 9.11049 28.462 9.09005 28.462C9.06962 28.462 9.04946 28.4667 9.03114 28.4758L8.45114 28.8107ZM11.7759 28.8369C11.745 28.8543 11.745 28.8845 11.7802 28.9049L12.4177 29.2758C12.4504 29.2947 12.5024 29.2947 12.5333 29.2769L13.1722 28.9078C13.2031 28.89 13.2031 28.8598 13.1704 28.8409L12.533 28.4703C12.5149 28.4605 12.4949 28.4552 12.4744 28.4548C12.4539 28.4543 12.4336 28.4588 12.4151 28.4678L11.7759 28.8369ZM9.30824 29.1525C9.27514 29.1714 9.27478 29.2016 9.30787 29.2209L9.94533 29.5911C9.9806 29.6118 10.0326 29.6118 10.0653 29.5925L10.7046 29.2234C10.7355 29.2056 10.7355 29.1758 10.7002 29.1551L10.0631 28.7852C10.0453 28.7759 10.0256 28.771 10.0055 28.7707C9.98541 28.7704 9.96554 28.7749 9.94751 28.7838L9.30824 29.1525ZM13.0333 29.2631C13.0006 29.2823 13.0002 29.3125 13.0355 29.3329L13.673 29.7034C13.7082 29.7238 13.7602 29.7238 13.793 29.7049L14.4322 29.3358C14.4631 29.3176 14.4635 29.2878 14.4282 29.2674L13.7908 28.8969C13.7727 28.887 13.7526 28.8817 13.732 28.8812C13.7114 28.8808 13.6911 28.8853 13.6726 28.8943L13.0333 29.2631ZM10.7697 29.418C10.7388 29.4354 10.7388 29.4652 10.7741 29.486L11.4115 29.8565C11.4442 29.8754 11.4962 29.8754 11.5271 29.8576L12.1664 29.4889C12.197 29.4707 12.1973 29.4409 12.1642 29.4216L11.5268 29.0514C11.5088 29.0416 11.4887 29.0362 11.4682 29.0357C11.4477 29.0352 11.4274 29.0396 11.409 29.0485L10.7697 29.418ZM12.0224 29.8471C11.9897 29.866 11.9893 29.8961 12.0246 29.9165L12.6621 30.2871C12.6973 30.3074 12.7493 30.3074 12.7821 30.2885L13.4213 29.9194C13.4522 29.9012 13.4526 29.8714 13.4173 29.8511L12.7799 29.4805C12.7618 29.4707 12.7417 29.4653 12.7211 29.4649C12.7005 29.4644 12.6802 29.4689 12.6617 29.478L12.0224 29.8471ZM9.76351 29.9987C9.7326 30.0165 9.73005 30.0478 9.76533 30.0681L10.4028 30.4387C10.4355 30.458 10.4901 30.4565 10.521 30.4387L11.1602 30.0696C11.1908 30.0518 11.1911 30.022 11.1581 30.0027L10.5206 29.6321C10.5026 29.6224 10.4825 29.617 10.462 29.6166C10.4415 29.6162 10.4212 29.6206 10.4028 29.6296L9.76351 29.9987ZM13.4911 30.1543C13.4602 30.1721 13.4599 30.2023 13.493 30.2212L14.1304 30.5918C14.1657 30.6121 14.2177 30.6121 14.2482 30.5943L14.8875 30.2252C14.9184 30.2078 14.9184 30.1776 14.8831 30.1572L14.2457 29.7867C14.2279 29.7774 14.2081 29.7724 14.188 29.7722C14.168 29.7719 14.1481 29.7764 14.1301 29.7852L13.4911 30.1543ZM11.0119 30.4303C10.9784 30.4496 10.9784 30.4798 11.0137 30.5001L11.6511 30.8707C11.6864 30.8911 11.7384 30.8911 11.7711 30.8718L12.4108 30.5027C12.4413 30.4852 12.4417 30.4551 12.4064 30.4347L11.769 30.0641C11.7509 30.0543 11.7308 30.0488 11.7102 30.0483C11.6897 30.0478 11.6693 30.0522 11.6508 30.0612L11.0119 30.4303ZM12.4755 30.7409C12.4446 30.7587 12.4446 30.7885 12.4773 30.8078L13.1148 31.178C13.1501 31.1987 13.2021 31.1987 13.2326 31.1809L13.8719 30.8118C13.905 30.7925 13.9053 30.7627 13.8701 30.742L13.2326 30.3718C13.2143 30.3623 13.1941 30.3574 13.1735 30.3574C13.1529 30.3574 13.1327 30.3623 13.1144 30.3718L12.4755 30.7409ZM5.65987 30.4223C5.62933 30.4401 5.62896 30.47 5.66205 30.4892L6.03842 30.7078C6.07114 30.7271 6.12569 30.7285 6.15623 30.7107L6.73878 30.3743C6.76933 30.3565 6.76714 30.3252 6.73442 30.306L6.35805 30.0874C6.34024 30.0781 6.3205 30.0731 6.30041 30.0729C6.28032 30.0726 6.26045 30.0771 6.24242 30.086L5.65987 30.4223ZM6.59042 29.8849C6.55951 29.9031 6.55951 29.9329 6.59223 29.9521L6.9686 30.1707C7.00133 30.19 7.05587 30.1914 7.08678 30.1736L7.66896 29.8372C7.69987 29.8194 7.69769 29.7881 7.6646 29.7689L7.28823 29.5503C7.27043 29.541 7.25068 29.536 7.23059 29.5358C7.2105 29.5355 7.19063 29.54 7.1726 29.5489L6.59042 29.8849ZM7.30787 30.3074C7.27442 30.3267 7.27442 30.3565 7.30714 30.3758L7.9446 30.746C7.97987 30.7667 8.03187 30.7667 8.06496 30.7474L8.70423 30.3783C8.73514 30.3609 8.73514 30.3307 8.69987 30.3103L8.06242 29.9394C8.04458 29.9302 8.02482 29.9253 8.00473 29.9251C7.98464 29.9249 7.96479 29.9294 7.94678 29.9383L7.30787 30.3074ZM8.75769 30.5794C8.72678 30.5972 8.72424 30.6285 8.75951 30.6492L9.3966 31.0194C9.42969 31.0387 9.48387 31.0376 9.51478 31.0194L10.1541 30.6503C10.1846 30.6325 10.185 30.6027 10.1519 30.5834L9.51442 30.2132C9.49643 30.2034 9.47635 30.198 9.45586 30.1975C9.43537 30.197 9.41505 30.2014 9.3966 30.2103L8.75769 30.5794ZM10.001 31.0143C9.96787 31.0332 9.96751 31.0634 10.0028 31.0838L10.6402 31.4543C10.6755 31.4747 10.7275 31.4747 10.7602 31.4554L11.3999 31.0863C11.4304 31.0689 11.4308 31.0387 11.3955 31.0183L10.7577 30.6478C10.7397 30.638 10.7196 30.6327 10.6991 30.6322C10.6786 30.6318 10.6583 30.6362 10.6399 30.6452L10.001 31.0143ZM7.75114 31.1605C7.7206 31.178 7.71805 31.2096 7.75333 31.23L8.39078 31.6005C8.42351 31.6194 8.47805 31.6183 8.5086 31.6005L9.14787 31.2314C9.17842 31.2136 9.17878 31.1834 9.14569 31.1645L8.50823 30.794C8.49022 30.7842 8.47013 30.7789 8.44963 30.7784C8.42914 30.778 8.40884 30.7824 8.39042 30.7914L7.75114 31.1605ZM8.99005 31.5976C8.95696 31.6169 8.9566 31.6471 8.99187 31.6674L9.62933 32.038C9.6646 32.0583 9.7166 32.0583 9.74933 32.0391L10.389 31.67C10.4195 31.6525 10.4199 31.6223 10.3846 31.602L9.74714 31.2314C9.72913 31.2216 9.70904 31.2163 9.68854 31.2159C9.66805 31.2154 9.64775 31.2199 9.62933 31.2289L8.99005 31.5976ZM6.30642 30.8856C6.27551 30.9034 6.27551 30.9336 6.30823 30.9525L6.94569 31.3231C6.98096 31.3434 7.03296 31.3434 7.06351 31.3256L7.70278 30.9565C7.73369 30.9391 7.73624 30.9074 7.70096 30.8871L7.06314 30.5161C7.04483 30.5071 7.02467 30.5024 7.00423 30.5024C6.9838 30.5024 6.96364 30.5071 6.94533 30.5161L6.30642 30.8856ZM5.30714 31.4623C5.27442 31.4816 5.27405 31.5114 5.30714 31.5307L5.94424 31.9012C5.97951 31.9216 6.03151 31.9216 6.0646 31.9023L6.70387 31.5332C6.73442 31.5158 6.73478 31.4856 6.69951 31.4652L6.06205 31.0947C6.04424 31.0854 6.0245 31.0804 6.00441 31.0802C5.98432 31.0799 5.96445 31.0844 5.94642 31.0932L5.30714 31.4623ZM6.74496 31.7412C6.71223 31.7601 6.71187 31.7903 6.74714 31.8111L7.3846 32.1812C7.41733 32.2005 7.46933 32.2005 7.50242 32.1812L8.14169 31.8121C8.1726 31.7943 8.1726 31.7645 8.13951 31.7452L7.50242 31.3751C7.48438 31.3652 7.46424 31.3597 7.44368 31.3592C7.42312 31.3587 7.40273 31.3632 7.38423 31.3721L6.74496 31.7412ZM7.9766 32.1827C7.94605 32.2005 7.94569 32.2307 7.98096 32.2511L8.61842 32.6212C8.65369 32.642 8.70569 32.642 8.7366 32.6241L9.37805 32.2536C9.4086 32.2358 9.40896 32.206 9.37369 32.1852L8.73624 31.8151C8.71825 31.8052 8.69817 31.7998 8.67768 31.7993C8.65719 31.7988 8.63687 31.8032 8.61842 31.8121L7.9766 32.1827ZM5.73914 32.322C5.70569 32.3412 5.70569 32.3714 5.74096 32.3918L6.37842 32.7623C6.41114 32.7812 6.46314 32.7812 6.49623 32.7623L7.13551 32.3932C7.16642 32.3751 7.16642 32.3452 7.13369 32.3263L6.49623 31.9558C6.4782 31.9459 6.45806 31.9405 6.4375 31.94C6.41694 31.9395 6.39655 31.9439 6.37805 31.9529L5.73914 32.322ZM6.96569 32.7663C6.93514 32.7841 6.93478 32.8143 6.97005 32.8347L7.60751 33.2049C7.64278 33.2256 7.69478 33.2256 7.72569 33.2078L8.3646 32.8387C8.39805 32.8198 8.39805 32.7896 8.36278 32.7689L7.72533 32.3987C7.70694 32.3887 7.68641 32.3834 7.6655 32.3832C7.6446 32.3829 7.62395 32.3877 7.60533 32.3972L6.96569 32.7663ZM4.41805 33.0849C4.38714 33.1027 4.38714 33.1325 4.42242 33.1532L5.05987 33.5234C5.0926 33.5427 5.1446 33.5427 5.17551 33.5249L6.15078 32.962C6.18351 32.9427 6.18387 32.9125 6.15078 32.8936L5.51369 32.5227C5.49527 32.5128 5.47473 32.5075 5.45382 32.5074C5.43292 32.5072 5.41228 32.512 5.39369 32.5216L4.41805 33.0849ZM8.41514 33.0849C8.38242 33.1038 8.38205 33.134 8.41514 33.1532L9.05224 33.5234C9.08751 33.5441 9.13951 33.5441 9.1726 33.5249L9.81187 33.1558C9.84242 33.138 9.84278 33.1081 9.80751 33.0874L9.17005 32.7172C9.15224 32.7079 9.1325 32.703 9.11241 32.7027C9.09232 32.7024 9.07245 32.7069 9.05442 32.7158L8.41514 33.0849ZM5.41296 33.6631C5.38205 33.6809 5.38205 33.7107 5.41733 33.7314L6.05442 34.1016C6.08969 34.1223 6.14169 34.1223 6.1726 34.1045L7.34205 33.4292C7.37296 33.4114 7.37296 33.3812 7.33769 33.3609L6.70023 32.9907C6.68225 32.9809 6.66217 32.9755 6.64168 32.975C6.62119 32.9745 6.60087 32.9789 6.58242 32.9878L5.41296 33.6631ZM9.39587 33.6711C9.36314 33.6903 9.36278 33.7205 9.39805 33.7409L10.1861 34.1991C10.2188 34.218 10.2708 34.218 10.3039 34.1991L10.9431 33.8296C10.9737 33.8121 10.9741 33.782 10.941 33.7627L10.153 33.3049C10.1349 33.2951 10.1149 33.2898 10.0944 33.2893C10.0739 33.2889 10.0536 33.2933 10.0351 33.3023L9.39587 33.6711ZM6.41005 34.2427C6.37951 34.2601 6.37914 34.2903 6.41223 34.3096L7.04969 34.6798C7.08496 34.7005 7.13696 34.7005 7.16751 34.6827L8.86242 33.7041C8.89333 33.686 8.89333 33.6561 8.85805 33.6358L8.22096 33.2652C8.20315 33.2559 8.18341 33.251 8.16332 33.2507C8.14323 33.2505 8.12336 33.2549 8.10533 33.2638L6.41005 34.2427ZM8.39914 34.2467C8.3686 34.2645 8.36823 34.2943 8.40351 34.3151L9.19151 34.7729C9.22424 34.7918 9.27624 34.7918 9.30714 34.7743L9.94642 34.4052C9.97951 34.386 9.97987 34.3561 9.94678 34.3369L9.15878 33.8787C9.14036 33.8688 9.11982 33.8635 9.09892 33.8634C9.07801 33.8632 9.05738 33.8681 9.03878 33.8776L8.39914 34.2467ZM7.40496 34.8205C7.37405 34.8387 7.37405 34.8685 7.40933 34.8889L8.19733 35.3471C8.23005 35.366 8.28205 35.366 8.31296 35.3481L8.95224 34.9791C8.98496 34.9601 8.98533 34.93 8.95224 34.9111L8.1646 34.4529C8.14613 34.4429 8.12552 34.4376 8.10455 34.4374C8.08358 34.4372 8.06288 34.4422 8.04424 34.4518L7.40496 34.8205ZM3.4606 32.5285C3.43005 32.5463 3.42969 32.5765 3.46278 32.5954L4.10023 32.966C4.13551 32.9863 4.18751 32.9863 4.21805 32.9685L4.66787 32.7089C4.70096 32.69 4.70133 32.6598 4.66605 32.6391L4.0286 32.2689C4.01034 32.2594 3.99007 32.2545 3.96951 32.2545C3.94894 32.2545 3.92867 32.2594 3.91042 32.2689L3.4606 32.5285ZM4.30569 32.0405C4.27514 32.0583 4.27478 32.0885 4.30787 32.1074L4.94533 32.478C4.9806 32.4983 5.0326 32.4983 5.06314 32.4805L5.70242 32.1114C5.73333 32.094 5.73333 32.0638 5.69805 32.0434L5.0606 31.6725C5.04279 31.6632 5.02304 31.6582 5.00295 31.658C4.98286 31.6577 4.963 31.6622 4.94496 31.6711L4.30569 32.0405ZM10.4442 31.9136C10.4133 31.9314 10.4133 31.9612 10.4461 31.9805L11.0835 32.3507C11.1188 32.3714 11.1708 32.3714 11.2017 32.3536L11.8406 31.9845C11.8737 31.9652 11.8741 31.9354 11.8388 31.9147L11.2013 31.5445C11.1831 31.5351 11.1629 31.5302 11.1424 31.5302C11.1219 31.5302 11.1017 31.5351 11.0835 31.5445L10.4442 31.9136ZM11.4595 31.3271C11.429 31.3449 11.429 31.3751 11.4617 31.394L12.0991 31.7645C12.1344 31.7849 12.1864 31.7849 12.217 31.7671L12.8562 31.398C12.8893 31.3791 12.8897 31.3489 12.8544 31.3285L12.217 30.958C12.1988 30.9486 12.1786 30.9436 12.1581 30.9436C12.1376 30.9436 12.1174 30.9486 12.0991 30.958L11.4595 31.3271ZM14.5068 29.5681C14.4759 29.586 14.4733 29.6172 14.5061 29.6365L15.1435 30.0067C15.1621 30.0163 15.1826 30.0215 15.2035 30.0218C15.2244 30.022 15.2451 30.0173 15.2639 30.0081L15.9031 29.6391C15.9341 29.6212 15.9341 29.5911 15.8988 29.5707L15.2613 29.2005C15.2435 29.1912 15.2238 29.1862 15.2037 29.186C15.1836 29.1857 15.1637 29.1902 15.1457 29.199L14.5068 29.5681ZM14.0442 28.6798C14.0137 28.6972 14.0111 28.7289 14.0464 28.7492L14.6839 29.1198C14.7024 29.1294 14.7229 29.1345 14.7437 29.1348C14.7645 29.135 14.7851 29.1304 14.8039 29.1212L15.4431 28.7521C15.4741 28.734 15.4741 28.7041 15.4388 28.6838L14.8017 28.3132C14.7836 28.3034 14.7635 28.298 14.7429 28.2976C14.7223 28.2972 14.702 28.3016 14.6835 28.3107L14.0442 28.6798ZM15.5221 28.9816C15.4893 29.0009 15.489 29.0307 15.5221 29.05L16.1591 29.4205C16.1944 29.4409 16.2464 29.4409 16.2795 29.4216L16.9188 29.0529C16.9497 29.0347 16.9497 29.0049 16.9144 28.9845L16.277 28.614C16.2592 28.6046 16.2394 28.5996 16.2193 28.5994C16.1992 28.5991 16.1794 28.6036 16.1613 28.6125L15.5221 28.9816ZM11.3846 32.5231C11.3537 32.5409 11.3537 32.5711 11.389 32.5914L12.177 33.0496C12.2097 33.0685 12.2617 33.0685 12.2926 33.0507L17.929 29.7961C17.9624 29.7772 17.9624 29.7471 17.9297 29.7278L17.1417 29.27C17.1233 29.26 17.1028 29.2547 17.0819 29.2544C17.061 29.2542 17.0403 29.259 17.0217 29.2685L11.3846 32.5231ZM17.4191 29.0391C17.3882 29.0569 17.3882 29.0871 17.4235 29.1074L18.2111 29.5656C18.2442 29.5845 18.2962 29.5845 18.3268 29.5667L18.9661 29.1976C18.997 29.1798 18.9995 29.1485 18.9664 29.1292L18.1788 28.6711C18.1602 28.6615 18.1396 28.6564 18.1187 28.6562C18.0978 28.656 18.0772 28.6607 18.0584 28.67L17.4191 29.0391ZM21.4508 26.698C21.4202 26.7154 21.4199 26.7452 21.4551 26.766L21.7184 26.9191C21.7537 26.9398 21.8057 26.9398 21.8366 26.922L22.4759 26.5529C22.5064 26.5347 22.5068 26.5049 22.4715 26.4845L22.2079 26.3314C22.1899 26.3216 22.1698 26.3162 22.1493 26.3157C22.1288 26.3152 22.1085 26.3196 22.0901 26.3285L21.4508 26.698ZM21.9846 27.0078C21.9541 27.026 21.9537 27.0558 21.989 27.0761L22.2548 27.2307C22.2875 27.25 22.3395 27.25 22.3704 27.2321L23.0097 26.8631C23.0402 26.8452 23.0406 26.8151 23.0075 26.7961L22.7421 26.6416C22.724 26.6318 22.7038 26.6264 22.6833 26.626C22.6627 26.6255 22.6423 26.63 22.6239 26.6391L21.9846 27.0078ZM20.9642 27.5969C20.9337 27.6151 20.9333 27.6449 20.9686 27.6652L21.2344 27.8198C21.2671 27.839 21.3191 27.8391 21.3501 27.8212L21.9893 27.4521C22.0199 27.4343 22.0202 27.4041 21.9871 27.3852L21.7217 27.2307C21.7036 27.2209 21.6835 27.2155 21.6629 27.215C21.6423 27.2146 21.622 27.2191 21.6035 27.2281L20.9642 27.5969ZM19.4479 27.8678C19.4173 27.8856 19.417 27.9154 19.4522 27.9361L20.2402 28.394C20.273 28.4129 20.325 28.4129 20.3559 28.3954L20.9951 28.0263C21.0257 28.0081 21.0261 27.9783 20.993 27.9594L20.205 27.5012C20.1869 27.4915 20.1669 27.4861 20.1464 27.4857C20.1259 27.4852 20.1056 27.4897 20.0871 27.4987L19.4479 27.8678ZM23.005 26.4191C22.9744 26.4365 22.9741 26.4667 23.0093 26.487L23.2751 26.6416C23.3079 26.6609 23.3599 26.6609 23.3908 26.643L24.0301 26.274C24.0606 26.2561 24.061 26.226 24.0279 26.2071L23.7624 26.0525C23.7444 26.0427 23.7242 26.0373 23.7036 26.0369C23.6831 26.0364 23.6627 26.0409 23.6442 26.05L23.005 26.4191ZM9.43078 32.4983C9.39805 32.5176 9.39769 32.5478 9.43078 32.5667L10.0679 32.9372C10.1031 32.9576 10.1551 32.9576 10.1879 32.9387L10.8275 32.5696C10.8581 32.5514 10.8584 32.5216 10.8231 32.5012L10.1857 32.1307C10.1679 32.1214 10.1481 32.1164 10.128 32.1162C10.108 32.1159 10.0881 32.1204 10.0701 32.1292L9.43078 32.4983ZM16.8199 23.9791C16.789 23.9969 16.7864 24.0281 16.8195 24.0474L17.1959 24.266C17.2145 24.2752 17.2349 24.2801 17.2557 24.2804C17.2765 24.2806 17.297 24.2762 17.3159 24.2674L17.8962 23.9329C17.929 23.9136 17.9271 23.882 17.8941 23.8627L17.5177 23.6445C17.4995 23.6351 17.4793 23.6302 17.4588 23.6302C17.4383 23.6302 17.4181 23.6351 17.3999 23.6445L16.8199 23.9791ZM15.8893 24.5161C15.8588 24.5343 15.8584 24.5641 15.8915 24.583L16.2679 24.802C16.3006 24.8209 16.3551 24.8223 16.3857 24.8045L16.9682 24.4685C16.9988 24.4503 16.9966 24.419 16.9639 24.4001L16.5875 24.1812C16.5697 24.1719 16.55 24.1669 16.5299 24.1667C16.5098 24.1664 16.4899 24.1709 16.4719 24.1798L15.8893 24.5161ZM18.4606 23.8685C18.4275 23.8874 18.4271 23.9176 18.4602 23.9369L19.0977 24.3071C19.133 24.3278 19.185 24.3278 19.2177 24.3085L19.857 23.9394C19.8879 23.9216 19.8879 23.8914 19.8526 23.8711L19.2155 23.5009C19.1977 23.4916 19.178 23.4866 19.1579 23.4863C19.1378 23.4861 19.1179 23.4906 19.0999 23.4994L18.4606 23.8685ZM19.4177 24.4245C19.385 24.4438 19.3846 24.474 19.4199 24.4943L20.057 24.8649C20.0901 24.8838 20.1421 24.8838 20.1751 24.8649L20.8144 24.4958C20.845 24.4776 20.8453 24.4478 20.8122 24.4289L20.1748 24.0583C20.1568 24.0486 20.1367 24.0432 20.1162 24.0428C20.0957 24.0423 20.0754 24.0468 20.057 24.0558L19.4177 24.4245ZM20.4646 24.9729C20.4319 24.9918 20.4315 25.022 20.4668 25.0423L21.1042 25.4129C21.1395 25.4332 21.1915 25.4332 21.2242 25.4143L21.8635 25.0452C21.8944 25.0274 21.8944 24.9972 21.8591 24.9769L21.2221 24.6063C21.204 24.5965 21.1838 24.5911 21.1633 24.5907C21.1427 24.5902 21.1223 24.5947 21.1039 24.6038L20.4646 24.9729ZM16.3108 25.1096C16.2781 25.1285 16.2777 25.1587 16.3108 25.1776L16.9479 25.5481C16.9831 25.5685 17.0351 25.5685 17.0682 25.5496L18.8911 24.4972C18.9221 24.479 18.9221 24.4492 18.8868 24.4289L18.2493 24.0583C18.2315 24.049 18.2118 24.044 18.1917 24.0437C18.1716 24.0435 18.1517 24.048 18.1337 24.0569L16.3108 25.1096ZM20.8675 25.6205L18.8155 26.8038C18.7976 26.8137 18.7773 26.8185 18.7568 26.8179C18.7364 26.8173 18.7164 26.8111 18.6991 26.8001L18.0628 26.4314C18.0282 26.4118 18.0282 26.3809 18.0591 26.3652L18.5984 26.051C18.6875 26.0009 18.6875 25.9194 18.5984 25.8689L17.8224 25.415C17.7875 25.3958 17.7875 25.3645 17.8188 25.3492L19.1141 24.6001C19.1453 24.5812 19.1955 24.5812 19.2341 24.6001L20.8631 25.5507C20.8984 25.5703 20.8984 25.6016 20.8675 25.6205ZM15.8002 26.5132C15.7697 26.5311 15.7693 26.5609 15.8046 26.5816L16.4421 26.9518C16.4748 26.971 16.5268 26.9711 16.5577 26.9532L17.197 26.5841C17.2301 26.5652 17.2301 26.5351 17.1973 26.5158L16.5599 26.1456C16.5415 26.1357 16.521 26.1303 16.5001 26.1301C16.4791 26.1298 16.4585 26.1347 16.4399 26.1441L15.8002 26.5132ZM17.077 26.9289C17.0461 26.9463 17.0461 26.9765 17.0813 26.9969L17.7188 27.3674C17.7541 27.3878 17.8061 27.3878 17.8366 27.3703L18.4759 27.0012C18.5068 26.983 18.5093 26.9518 18.4741 26.9314L17.8366 26.5609C17.8181 26.5512 17.7975 26.5461 17.7766 26.5458C17.7557 26.5455 17.735 26.5502 17.7162 26.5594L17.077 26.9289ZM14.0286 25.5907C13.9981 25.6085 13.9977 25.6383 14.0308 25.6576L14.4071 25.8761C14.4399 25.8954 14.4944 25.8969 14.525 25.8791L15.1075 25.5427C15.1381 25.5249 15.1359 25.4936 15.1031 25.4743L14.7268 25.2558C14.709 25.2465 14.6892 25.2415 14.6691 25.2412C14.649 25.241 14.6292 25.2455 14.6111 25.2543L14.0286 25.5907ZM14.9591 25.0532C14.9282 25.0714 14.9282 25.1012 14.961 25.1205L15.3373 25.339C15.3701 25.3583 15.4246 25.3594 15.4555 25.3416L16.0377 25.0056C16.0686 24.9878 16.0664 24.9565 16.0333 24.9372L15.657 24.7187C15.6392 24.7094 15.6194 24.7044 15.5993 24.7042C15.5792 24.7039 15.5594 24.7084 15.5413 24.7172L14.9591 25.0532ZM15.3093 25.6874C15.2788 25.7056 15.2784 25.7354 15.3115 25.7547L15.949 26.1249C15.9842 26.1456 16.0362 26.1456 16.0668 26.1278L16.7061 25.7587C16.7391 25.7394 16.7395 25.7096 16.7042 25.6889L16.0668 25.3187C16.0485 25.3092 16.0283 25.3043 16.0077 25.3043C15.9871 25.3043 15.9669 25.3092 15.9486 25.3187L15.3093 25.6874Z" fill="#BAC1CE"/>
<path d="M16.8067 25.9323C16.7762 25.9505 16.7758 25.9803 16.8111 26.0006L17.4489 26.3712C17.4816 26.3901 17.5336 26.3901 17.5645 26.3726L18.2038 26.0035C18.2365 25.9843 18.2369 25.9541 18.2038 25.9352L17.5667 25.5646C17.5483 25.5547 17.5278 25.5494 17.5069 25.5491C17.486 25.5489 17.4653 25.5537 17.4467 25.5632L16.8067 25.9323ZM10.3074 28.5759C10.2765 28.5937 10.2765 28.6235 10.3096 28.6428L10.9467 29.013C10.982 29.0337 11.034 29.0337 11.0649 29.0159L11.7042 28.6468C11.7369 28.6279 11.7373 28.5977 11.702 28.577L11.0645 28.2068C11.0463 28.1974 11.0261 28.1925 11.0056 28.1925C10.9851 28.1925 10.9649 28.1974 10.9467 28.2068L10.3074 28.5759ZM14.3107 26.2646C14.2776 26.2835 14.2776 26.3137 14.3104 26.333L14.9478 26.7032C14.9831 26.7239 15.0351 26.7239 15.0678 26.7046L15.7074 26.3355C15.738 26.3177 15.7384 26.2875 15.7031 26.2672L15.0656 25.897C15.0478 25.8877 15.0281 25.8827 15.008 25.8825C14.9879 25.8822 14.968 25.8867 14.95 25.8955L14.3107 26.2646ZM4.72999 30.9595C4.69908 30.9774 4.69908 31.0075 4.73181 31.0265L5.10817 31.2454C5.1409 31.2643 5.19545 31.2657 5.22635 31.2479L5.80854 30.9115C5.83945 30.8937 5.83726 30.8625 5.80417 30.8432L5.42781 30.625C5.41003 30.6156 5.3903 30.6106 5.37021 30.6103C5.35012 30.61 5.33024 30.6144 5.31217 30.6232L4.72999 30.9595ZM7.5209 29.3479C7.49035 29.3661 7.48781 29.3974 7.5209 29.4163L7.8969 29.6352C7.91555 29.6445 7.93607 29.6494 7.95691 29.6497C7.97776 29.65 7.99839 29.6455 8.01726 29.6366L8.59726 29.3017C8.63035 29.2825 8.62817 29.2508 8.59544 29.2319L8.21908 29.013C8.20082 29.0035 8.18056 28.9986 8.15999 28.9986C8.13942 28.9986 8.11916 29.0035 8.1009 29.013L7.5209 29.3479ZM17.7507 23.4421C17.7176 23.461 17.7173 23.4912 17.7504 23.5105L18.1264 23.729C18.1594 23.7483 18.2136 23.7497 18.2467 23.7305L18.8267 23.3955C18.8598 23.3763 18.8576 23.3446 18.8249 23.3257L18.4485 23.1072C18.4303 23.0977 18.41 23.0928 18.3894 23.0928C18.3689 23.0928 18.3486 23.0977 18.3304 23.1072L17.7507 23.4421Z" fill="#BAC1CE"/>
<path d="M40.4934 36.045C41.048 36.365 41.0509 36.885 40.5 37.205L25.7345 45.7858C25.1836 46.1058 24.2865 46.1058 23.7316 45.7858L16.084 41.3701C15.5294 41.0501 15.5262 40.5301 16.0774 40.2101L30.8425 31.6294C31.3934 31.3094 32.2909 31.3094 32.8454 31.6294L40.4934 36.045Z" fill="#5B5E71"/>
<path d="M40.9126 36.6323L40.9046 37.8258C40.9046 38.0312 40.7665 38.2403 40.4985 38.3981L25.729 46.9763C25.1763 47.3 24.2806 47.3 23.7283 46.9763L16.081 42.5651C15.7974 42.4032 15.6592 42.1941 15.6592 41.981L15.6628 40.7872C15.6628 41.0003 15.8046 41.2054 16.085 41.3712L23.7359 45.7829C24.2886 46.1065 25.1803 46.1065 25.7366 45.7829L40.4985 37.2043C40.7748 37.0465 40.9126 36.8374 40.9126 36.6323Z" fill="#474B59"/>
<path d="M38.9563 37.1565L25.32 45.0903L17.2861 40.4499L30.9185 32.5161L38.9563 37.1565Z" fill="white"/>
<path d="M21.1058 42.9143C21.3106 43.0324 21.3117 43.2248 21.1084 43.343C20.9051 43.4608 20.5731 43.4608 20.3684 43.343C20.16 43.2226 20.1629 43.0321 20.3658 42.9139C20.5695 42.7961 20.8975 42.7943 21.1058 42.9143Z" fill="#474B59"/>
<path d="M33.8683 37.0835C33.1622 37.493 32.0174 37.4992 31.3047 37.0872C30.6018 36.6777 30.5956 36.013 31.3047 35.6035C32.0051 35.1948 33.1556 35.1948 33.8622 35.6035C34.5716 36.013 34.5683 36.6748 33.8683 37.0835ZM31.0683 37.225C32.3752 37.9795 32.4705 39.1646 31.3622 39.9759C31.2251 40.077 30.9683 40.0875 30.8116 39.9974L26.28 37.381C26.1236 37.2904 26.144 37.1435 26.3149 37.0621C27.7149 36.4188 29.7705 36.4755 31.0683 37.225Z" fill="#FED57A"/>
<path d="M37.0839 35.1222L36.7828 35.2971L34.0938 33.7444L34.3948 33.5698L37.0839 35.1222Z" fill="#474B59"/>
<path d="M39.2676 38.5115C39.2276 38.4875 39.1716 38.4915 39.1113 38.5235L37.5014 39.4566C37.3814 39.5246 37.2891 39.689 37.2891 39.825C37.2891 39.8933 37.3131 39.9413 37.3494 39.9653L37.2651 39.9133C37.2291 39.8933 37.2051 39.8453 37.2051 39.777C37.2051 39.641 37.2971 39.4726 37.4134 39.4046L39.0276 38.4755C39.0876 38.4391 39.1436 38.4391 39.184 38.4595L39.2676 38.5115Z" fill="#BAC1CE"/>
<path d="M39.1106 38.525C39.231 38.4555 39.3288 38.5112 39.3288 38.6461C39.3292 38.7843 39.2324 38.9493 39.1121 39.0184L37.5012 39.9486C37.3837 40.0166 37.2888 39.9624 37.2881 39.8243C37.2881 39.6893 37.3823 39.5228 37.4997 39.4552L39.1106 38.525Z" fill="#D4DAE8"/>
<path d="M36.8735 39.9527C36.8335 39.9287 36.7771 39.9327 36.7171 39.965L35.1069 40.8981C34.9869 40.9661 34.8949 41.1305 34.8949 41.2665C34.8949 41.3348 34.9189 41.3828 34.9549 41.4068L34.8709 41.3548C34.8345 41.3348 34.8105 41.2865 34.8105 41.2185C34.8105 41.0825 34.9029 40.9141 35.0189 40.8461L36.6331 39.917C36.6931 39.8807 36.7495 39.8807 36.7895 39.901L36.8735 39.9527Z" fill="#BAC1CE"/>
<path d="M36.7171 39.9665C36.8371 39.8971 36.9345 39.9527 36.9353 40.0876C36.9353 40.2258 36.8385 40.3905 36.7185 40.46L35.1076 41.3901C34.9898 41.4581 34.8949 41.404 34.8945 41.2658C34.8942 41.1309 34.9884 40.9643 35.1058 40.8967L36.7171 39.9665Z" fill="#D4DAE8"/>
<path d="M26.6316 43.5844L25.5531 44.2113L18.8047 40.3149L19.8832 39.688L26.6316 43.5844Z" fill="#E4E8F4"/>
<path d="M28.6544 42.4081L27.5759 43.035L20.8271 39.1386L21.9061 38.5117L28.6544 42.4081Z" fill="#9AD898"/>
<path d="M30.6808 41.2308L29.6022 41.8577L22.8535 37.9614L23.9321 37.3345L30.6808 41.2308Z" fill="#F9607F"/>
<path d="M12.0599 17.6342L12.061 18.0029L2.83703 23.3283L2.83594 22.9596L12.0599 17.6342ZM12.0628 18.6709L12.0639 19.0396L2.83994 24.3651L2.83885 23.9963L12.0628 18.6709ZM12.0716 21.7865L12.0727 22.1549L2.84903 27.4803L2.84794 27.112L12.0716 21.7865ZM12.0778 23.86L12.0788 24.2334L2.85485 29.5589L2.85376 29.1854L12.0778 23.86ZM12.0745 22.8232L12.0756 23.1967L2.85157 28.5222L2.85048 28.1487L12.0745 22.8232ZM12.0687 20.7447L12.0698 21.1182L2.84576 26.4436L2.84466 26.0702L12.0687 20.7447ZM12.0658 19.708L12.0669 20.0814L2.84285 25.4069L2.84176 25.0327L12.0658 19.708Z" fill="#D4DAE8"/>
<path d="M16.9826 14.7876L16.9862 16.1978L13.3044 18.3236L13.3008 16.9131L16.9826 14.7876Z" fill="#9AD898"/>
<path d="M13.3057 18.9917L16.9875 16.8662L17.0002 21.3917L13.3184 23.5175L13.3057 18.9917ZM13.8809 22.5528L16.4337 21.0789C16.4318 20.2778 15.8526 19.948 15.1428 20.3578C14.4457 20.76 13.8788 21.7517 13.8809 22.5528ZM15.1464 18.564C14.7911 18.7691 14.4973 19.2782 14.4984 19.6862C14.4995 20.104 14.7955 20.2728 15.1504 20.068C15.5097 19.8604 15.7995 19.3535 15.7984 18.9357C15.7973 18.528 15.5057 18.3568 15.1464 18.564Z" fill="#748BFD"/>
<path d="M2.99977 20.0556C3.13177 19.9792 3.23977 20.0428 3.2405 20.1941C3.2405 20.3472 3.13322 20.5334 3.00159 20.6094C2.86813 20.6865 2.76013 20.6247 2.75977 20.4716C2.75904 20.3203 2.86668 20.1323 2.99977 20.0556ZM3.8805 19.5472C4.01359 19.4701 4.12195 19.5334 4.12231 19.685C4.12268 19.8377 4.01541 20.0243 3.88231 20.101C3.74886 20.1781 3.64231 20.1156 3.64159 19.9625C3.64122 19.8108 3.74704 19.6243 3.8805 19.5472ZM4.76231 19.0377C4.89431 18.9617 5.00377 19.0243 5.0045 19.1759C5.0045 19.3287 4.89577 19.5159 4.76413 19.5919C4.63068 19.669 4.52268 19.6072 4.52231 19.4541C4.52159 19.3028 4.62922 19.1148 4.76231 19.0377Z" fill="white"/>
<path d="M8.19131 42.5992L8.18513 43.2683L5.72949 44.6956L5.73567 44.0265L8.19131 42.5992Z" fill="#6EBA6E"/>
<path d="M5.73577 44.0264L5.72958 44.6955L3.25977 43.2697L3.26631 42.6006L5.73577 44.0264Z" fill="#75CA75"/>
<path d="M8.19169 42.5992L5.73606 44.0264L3.2666 42.6006L5.72224 41.1733L8.19169 42.5992Z" fill="#9AD898"/>
<path d="M44.7401 32.0217L44.734 32.6908L42.2783 34.1181L42.2849 33.449L44.7401 32.0217Z" fill="#F34858"/>
<path d="M42.285 33.4491L42.2784 34.1182L39.8086 32.692L39.8151 32.0229L42.285 33.4491Z" fill="#FA5168"/>
<path d="M44.7395 32.0215L42.2843 33.4488L39.8145 32.0226L42.2701 30.5957L44.7395 32.0215Z" fill="#F9607F"/>
<path d="M26.9872 19.271L26.981 19.9401L24.5254 21.367L24.5316 20.6979L26.9872 19.271Z" fill="#CAD0DD"/>
<path d="M24.5317 20.6982L24.5255 21.3672L22.0557 19.9411L22.0622 19.272L24.5317 20.6982Z" fill="#D4DAE8"/>
<path d="M26.9876 19.2708L24.532 20.6977L22.0625 19.2719L24.5181 17.845L26.9876 19.2708Z" fill="#E4E8F4"/>
</svg>
